<svg width="130" height="46" viewBox="0 0 130 46" fill="none" xmlns="http://www.w3.org/2000/svg">
<path d="M0.839966 23C0.839966 10.8004 10.7297 0.910706 22.9293 0.910706C35.1289 0.910706 45.0186 10.8004 45.0186 23V41.4078C45.0186 43.441 43.3703 45.0893 41.337 45.0893H22.9293C10.7297 45.0893 0.839966 35.1996 0.839966 23Z" fill="url(#paint0_linear_157_563)"/>
<path d="M18.8546 18.3522H29.2822" stroke="white" stroke-width="2.35619" stroke-linecap="round"/>
<path d="M18.8545 22.886H26.3352" stroke="white" stroke-width="2.35619" stroke-linecap="round"/>
<path d="M18.8545 27.4197H23.6149" stroke="white" stroke-width="2.35619" stroke-linecap="round"/>
<path d="M20.8275 12.5087H16.3041C14.6497 12.5087 13.3084 13.8499 13.3084 15.5044V20.0774C13.3084 21.3388 12.044 22.7684 8.98938 22.7684" stroke="white" stroke-width="2.35619"/>
<path d="M26.7467 12.5087H31.2559C32.9104 12.5087 34.2516 13.8499 34.2516 15.5044V20.0774C34.2516 21.3388 35.5223 22.7684 38.5848 22.7684" stroke="white" stroke-width="2.35619"/>
<path d="M18.8545 32.6335H16.2979C14.6434 32.6335 13.3022 31.2923 13.3022 29.6378V25.356C13.3022 24.1431 12.0406 22.7684 8.98938 22.7684" stroke="white" stroke-width="2.35619"/>
<path d="M28.7197 32.6335H31.2763C32.9308 32.6335 34.2721 31.2923 34.2721 29.6378V25.356C34.2721 24.1431 35.5337 22.7684 38.5848 22.7684" stroke="white" stroke-width="2.35619"/>
<path d="M54.2792 34.5357C54.106 34.5357 53.9692 34.4856 53.869 34.3853C53.7687 34.2759 53.7185 34.1437 53.7185 33.9888V33.7153C53.7185 33.5603 53.7687 33.4327 53.869 33.3324C53.9692 33.223 54.106 33.1683 54.2792 33.1683H54.6621C54.8353 33.1683 54.972 33.223 55.0723 33.3324C55.1726 33.4327 55.2227 33.5603 55.2227 33.7153V33.9888C55.2227 34.1437 55.1726 34.2759 55.0723 34.3853C54.972 34.4856 54.8353 34.5357 54.6621 34.5357H54.2792ZM54.2655 42.4669C54.1197 42.4669 54.0148 42.435 53.951 42.3711C53.8872 42.2982 53.8553 42.1934 53.8553 42.0566V36.3134C53.8553 36.1767 53.8872 36.0764 53.951 36.0126C54.0148 35.9396 54.1197 35.9032 54.2655 35.9032H54.6758C54.9584 35.9032 55.0997 36.0399 55.0997 36.3134V42.0566C55.0997 42.3301 54.9584 42.4669 54.6758 42.4669H54.2655ZM57.4809 42.4669C57.1983 42.4669 57.057 42.3301 57.057 42.0566V36.245C57.057 36.1174 57.0752 36.0308 57.1117 35.9852C57.1573 35.9305 57.2439 35.9032 57.3715 35.9032H57.8228C58.0233 35.9032 58.1236 35.9989 58.1236 36.1903V36.8194C58.7709 36.0718 59.7098 35.6981 60.9405 35.6981C61.6881 35.6981 62.2806 35.8941 62.7182 36.2861C63.1649 36.6689 63.3882 37.2524 63.3882 38.0364V42.0566C63.3882 42.1934 63.3563 42.2982 63.2925 42.3711C63.2287 42.435 63.1239 42.4669 62.978 42.4669H62.5678C62.2852 42.4669 62.1439 42.3301 62.1439 42.0566V38.1047C62.1439 37.5669 62.0162 37.1886 61.761 36.9698C61.5148 36.751 61.1137 36.6416 60.5576 36.6416C60.1839 36.6416 59.8192 36.7145 59.4637 36.8604C59.1173 36.9971 58.8347 37.1931 58.6159 37.4484C58.4062 37.7036 58.3014 37.9954 58.3014 38.3235V42.0566C58.3014 42.1934 58.2695 42.2982 58.2057 42.3711C58.1418 42.435 58.037 42.4669 57.8911 42.4669H57.4809ZM66.134 42.4669C65.8605 42.4669 65.7238 42.3301 65.7238 42.0566V36.8741H64.999C64.8532 36.8741 64.7483 36.8467 64.6845 36.792C64.6298 36.7282 64.6025 36.6234 64.6025 36.4775V36.2724C64.6025 36.1356 64.6298 36.0399 64.6845 35.9852C64.7483 35.9305 64.8532 35.9032 64.999 35.9032H65.7238V35.2468C65.7238 34.5357 65.9106 33.9797 66.2844 33.5785C66.6582 33.1683 67.2234 32.9632 67.98 32.9632C68.7458 32.9632 69.3429 33.1273 69.7714 33.4555C69.8443 33.5102 69.8808 33.5649 69.8808 33.6196C69.8808 33.656 69.8671 33.6971 69.8397 33.7426L69.5799 34.1802C69.5435 34.244 69.5024 34.2759 69.4569 34.2759C69.4295 34.2759 69.3885 34.2623 69.3338 34.2349C69.1241 34.1073 68.9327 34.0161 68.7595 33.9614C68.5954 33.9067 68.3994 33.8794 68.1715 33.8794C67.7339 33.8794 67.4239 33.9933 67.2416 34.2212C67.0593 34.44 66.9681 34.7819 66.9681 35.2468V35.9032H68.9236C69.0694 35.9032 69.1697 35.9305 69.2244 35.9852C69.2882 36.0399 69.3201 36.1356 69.3201 36.2724V36.4775C69.3201 36.6234 69.2882 36.7282 69.2244 36.792C69.1697 36.8467 69.0694 36.8741 68.9236 36.8741H66.9681V42.0566C66.9681 42.1934 66.9362 42.2982 66.8724 42.3711C66.8086 42.435 66.7038 42.4669 66.5579 42.4669H66.134ZM73.3331 42.672C72.1753 42.672 71.2865 42.362 70.6666 41.7421C70.0467 41.1131 69.7367 40.2607 69.7367 39.185C69.7367 38.1093 70.0467 37.2615 70.6666 36.6416C71.2865 36.0126 72.1753 35.6981 73.3331 35.6981C74.4817 35.6981 75.366 36.0126 75.9859 36.6416C76.6149 37.2615 76.9294 38.1093 76.9294 39.185C76.9294 40.2607 76.6149 41.1131 75.9859 41.7421C75.366 42.362 74.4817 42.672 73.3331 42.672ZM73.3331 41.7148C74.0989 41.7148 74.6823 41.5005 75.0834 41.0721C75.4936 40.6345 75.6988 40.0055 75.6988 39.185C75.6988 38.3737 75.4982 37.7538 75.0971 37.3253C74.696 36.8877 74.108 36.6689 73.3331 36.6689C72.5582 36.6689 71.9657 36.8877 71.5554 37.3253C71.1543 37.7538 70.9538 38.3737 70.9538 39.185C70.9538 39.9964 71.1543 40.6208 71.5554 41.0584C71.9657 41.496 72.5582 41.7148 73.3331 41.7148Z" fill="#818181"/>
<path d="M61.1332 27.4098C58.2722 27.4098 56.059 26.6356 54.4938 25.0873C52.9286 23.5389 52.1461 21.3258 52.1461 18.4479C52.1461 15.5699 52.9118 13.3568 54.4433 11.8084C55.9917 10.2601 58.1964 9.4859 61.0575 9.4859C62.2019 9.4859 63.2622 9.60371 64.2384 9.83933C65.2145 10.075 66.0392 10.4116 66.7124 10.8491C66.8638 10.9501 66.9396 11.0595 66.9396 11.1773C66.9396 11.2783 66.8975 11.3961 66.8134 11.5307L66.1065 12.7425C66.0055 12.894 65.913 12.9697 65.8288 12.9697C65.7615 12.9697 65.6437 12.9276 65.4754 12.8435C64.4151 12.2039 63.0603 11.8842 61.4109 11.8842C59.5092 11.8842 58.0197 12.4311 56.9426 13.5251C55.8655 14.619 55.3269 16.26 55.3269 18.4479C55.3269 20.6694 55.8823 22.3272 56.9931 23.4211C58.1039 24.4982 59.6017 25.0368 61.4867 25.0368C63.237 25.0368 64.676 24.7086 65.8036 24.0522C65.9719 23.9681 66.0813 23.926 66.1317 23.926C66.2327 23.926 66.3337 24.0017 66.4347 24.1532L67.2173 25.4659C67.2678 25.5669 67.293 25.6511 67.293 25.7184C67.293 25.8194 67.2004 25.9288 67.0153 26.0466C65.7194 26.9554 63.7587 27.4098 61.1332 27.4098ZM74.9381 27.4098C72.7502 27.4098 71.0588 26.8376 69.8638 25.6931C68.6858 24.5319 68.0967 22.9583 68.0967 20.9723C68.0967 18.9864 68.6858 17.4212 69.8638 16.2768C71.0588 15.1155 72.7502 14.5349 74.9381 14.5349C77.126 14.5349 78.8174 15.1155 80.0123 16.2768C81.2072 17.4212 81.8047 18.9864 81.8047 20.9723C81.8047 22.9583 81.2072 24.5319 80.0123 25.6931C78.8174 26.8376 77.126 27.4098 74.9381 27.4098ZM74.9381 25.0368C76.133 25.0368 77.0418 24.6918 77.6645 24.0017C78.2872 23.3117 78.5986 22.3019 78.5986 20.9723C78.5986 19.6596 78.2872 18.6666 77.6645 17.9934C77.0418 17.3034 76.133 16.9584 74.9381 16.9584C73.76 16.9584 72.8512 17.3034 72.2116 17.9934C71.5889 18.6666 71.2776 19.6596 71.2776 20.9723C71.2776 22.2851 71.5889 23.2949 72.2116 24.0017C72.8512 24.6918 73.76 25.0368 74.9381 25.0368ZM90.5759 27.4098C85.7962 27.4098 83.4064 25.2556 83.4064 20.9471C83.4064 19.6849 83.6504 18.5741 84.1385 17.6148C84.6265 16.6386 85.325 15.8813 86.2338 15.3427C87.1594 14.8042 88.245 14.5349 89.4904 14.5349C91.2575 14.5349 92.5366 14.9304 93.3276 15.7214V10.7986C93.3276 10.4789 93.4034 10.2433 93.5548 10.0918C93.7063 9.94031 93.9503 9.86458 94.2869 9.86458H95.5492C95.8858 9.86458 96.1298 9.94031 96.2813 10.0918C96.4328 10.2433 96.5085 10.4789 96.5085 10.7986V25.7689C95.8689 26.2401 95.0106 26.6356 93.9335 26.9554C92.8564 27.2583 91.7372 27.4098 90.5759 27.4098ZM90.6517 25.1125C91.7793 25.1125 92.6713 24.9106 93.3276 24.5066V19.3567C93.3276 18.532 93.0415 17.9093 92.4693 17.4885C91.8971 17.0678 91.1566 16.8574 90.2477 16.8574C89.0192 16.8574 88.1019 17.2277 87.496 17.9682C86.8902 18.7087 86.5872 19.7269 86.5872 21.0228C86.5872 22.4702 86.9238 23.5137 87.597 24.1532C88.2702 24.7927 89.2884 25.1125 90.6517 25.1125ZM100.754 12.8182C100.35 12.8182 100.039 12.7004 99.8203 12.4648C99.6015 12.2292 99.4921 11.9431 99.4921 11.6065V11.0763C99.4921 10.7397 99.6015 10.4536 99.8203 10.218C100.039 9.98239 100.35 9.86458 100.754 9.86458H101.84C102.244 9.86458 102.555 9.98239 102.774 10.218C103.01 10.4536 103.127 10.7397 103.127 11.0763V11.6065C103.127 11.9431 103.01 12.2292 102.774 12.4648C102.555 12.7004 102.244 12.8182 101.84 12.8182H100.754ZM100.653 27.0311C100.317 27.0311 100.073 26.9554 99.9213 26.8039C99.7698 26.6525 99.6941 26.4252 99.6941 26.1223V15.8476C99.6941 15.5279 99.7698 15.2922 99.9213 15.1408C100.073 14.9893 100.317 14.9136 100.653 14.9136H101.966C102.303 14.9136 102.547 14.9893 102.698 15.1408C102.85 15.2922 102.925 15.5279 102.925 15.8476V26.1223C102.925 26.4252 102.85 26.6525 102.698 26.8039C102.564 26.9554 102.32 27.0311 101.966 27.0311H100.653ZM108.094 27.0311C107.757 27.0311 107.513 26.9554 107.361 26.8039C107.227 26.6525 107.159 26.4252 107.159 26.1223V17.2866H105.973C105.636 17.2866 105.401 17.2193 105.266 17.0846C105.148 16.9332 105.089 16.6975 105.089 16.3778V15.7971C105.089 15.4774 105.148 15.2502 105.266 15.1155C105.401 14.9809 105.636 14.9136 105.973 14.9136H107.159V13.9795C107.159 12.5658 107.538 11.4634 108.296 10.6724C109.053 9.88141 110.189 9.4859 111.704 9.4859C113.235 9.4859 114.438 9.81409 115.314 10.4705C115.465 10.5714 115.541 10.6892 115.541 10.8239C115.541 10.9249 115.507 11.0174 115.44 11.1016L114.809 12.1619C114.708 12.3133 114.615 12.3891 114.531 12.3891C114.481 12.3891 114.388 12.3554 114.253 12.2881C113.917 12.103 113.605 11.9683 113.319 11.8842C113.05 11.7832 112.73 11.7327 112.36 11.7327C111.636 11.7327 111.123 11.9094 110.82 12.2628C110.534 12.6163 110.391 13.1717 110.391 13.929V14.9136H113.496C113.833 14.9136 114.068 14.9809 114.203 15.1155C114.337 15.2502 114.405 15.4774 114.405 15.7971V16.3778C114.405 16.6975 114.337 16.9332 114.203 17.0846C114.068 17.2193 113.833 17.2866 113.496 17.2866H110.391V26.1223C110.391 26.4252 110.315 26.6525 110.164 26.8039C110.029 26.9554 109.785 27.0311 109.432 27.0311H108.094ZM118.297 30.9693C117.658 30.9693 117.069 30.8768 116.53 30.6916C115.992 30.5065 115.529 30.2541 115.142 29.9343C115.007 29.8165 114.94 29.7071 114.94 29.6061C114.94 29.5051 114.973 29.4126 115.041 29.3284L115.747 28.1167C115.848 27.9484 115.949 27.8642 116.05 27.8642C116.135 27.8642 116.236 27.9147 116.353 28.0157C116.623 28.2176 116.892 28.3691 117.161 28.4701C117.447 28.5711 117.784 28.6216 118.171 28.6216C118.676 28.6216 119.071 28.4533 119.358 28.1167C119.644 27.7969 119.938 27.2499 120.241 26.4757L115.142 15.6204C115.074 15.4521 115.041 15.3343 115.041 15.267C115.041 15.0314 115.175 14.9136 115.445 14.9136H117.59C117.809 14.9136 117.969 14.9472 118.07 15.0145C118.171 15.0819 118.264 15.2081 118.348 15.3932L121.731 23.3201L125.113 15.3932C125.198 15.2081 125.29 15.0819 125.391 15.0145C125.492 14.9472 125.652 14.9136 125.871 14.9136H128.017C128.286 14.9136 128.42 15.0314 128.42 15.267C128.42 15.3343 128.387 15.4521 128.319 15.6204L123.573 25.7436C122.917 27.1237 122.362 28.1671 121.907 28.874C121.47 29.5809 120.965 30.1026 120.393 30.4392C119.837 30.7926 119.139 30.9693 118.297 30.9693Z" fill="black"/>
<defs>
<linearGradient id="paint0_linear_157_563" x1="0.839966" y1="0.911241" x2="45.0186" y2="47.8694" gradientUnits="userSpaceOnUse">
<stop stop-color="#5368FB"/>
<stop offset="1" stop-color="#1720BC"/>
</linearGradient>
</defs>
</svg>
